<?xml version="1.0" encoding="UTF-8" standalone="no"?>
<!DOCTYPE svg PUBLIC "-//W3C//DTD SVG 1.1//EN"
 "http://www.w3.org/Graphics/SVG/1.1/DTD/svg11.dtd">
<!-- Generated by graphviz version 2.40.1 (20161225.0304)
 -->
<!-- Title: dependencies Pages: 1 -->
<svg width="1629pt" height="284pt"
 viewBox="0.00 0.00 1629.00 284.00" xmlns="http://www.w3.org/2000/svg" xmlns:xlink="http://www.w3.org/1999/xlink">
<g id="graph0" class="graph" transform="scale(1 1) rotate(0) translate(4 280)">
<title>dependencies</title>
<polygon fill="#ffffff" stroke="transparent" points="-4,4 -4,-280 1625,-280 1625,4 -4,4"/>
<text text-anchor="start" x="789.5091" y="-42.4" font-family="sans-serif" font-weight="bold" font-size="14.00" fill="#000000">Legend</text>
<polygon fill="#ffffb3" stroke="transparent" points="576.5,-10 576.5,-30 596.5,-30 596.5,-10 576.5,-10"/>
<text text-anchor="start" x="600.129" y="-15.4" font-family="sans-serif" font-size="14.00" fill="#000000"> &#160;Declarations</text>
<polygon fill="#8dd3c7" stroke="transparent" points="689.5,-10 689.5,-30 709.5,-30 709.5,-10 689.5,-10"/>
<text text-anchor="start" x="713.2251" y="-15.4" font-family="sans-serif" font-size="14.00" fill="#000000"> &#160;Module</text>
<polygon fill="#80b1d3" stroke="transparent" points="775.5,-10 775.5,-30 795.5,-30 795.5,-10 775.5,-10"/>
<text text-anchor="start" x="799.2812" y="-15.4" font-family="sans-serif" font-size="14.00" fill="#000000"> &#160;Bootstrap</text>
<polygon fill="#fdb462" stroke="transparent" points="872.5,-10 872.5,-30 892.5,-30 892.5,-10 872.5,-10"/>
<text text-anchor="start" x="896.1732" y="-15.4" font-family="sans-serif" font-size="14.00" fill="#000000"> &#160;Providers</text>
<polygon fill="#fb8072" stroke="transparent" points="968.5,-10 968.5,-30 988.5,-30 988.5,-10 968.5,-10"/>
<text text-anchor="start" x="992.2258" y="-15.4" font-family="sans-serif" font-size="14.00" fill="#000000"> &#160;Exports</text>
<g id="clust1" class="cluster">
<title>cluster_AppModule</title>
<polygon fill="none" stroke="#000000" stroke-dasharray="1,5" points="8,-70 8,-268 438,-268 438,-70 8,-70"/>
</g>
<g id="clust2" class="cluster">
<title>cluster_AppModule_declarations</title>
<polygon fill="none" stroke="#000000" points="168,-78 168,-130 430,-130 430,-78 168,-78"/>
</g>
<g id="clust5" class="cluster">
<title>cluster_AppModule_imports</title>
<polygon fill="none" stroke="#000000" points="16,-78 16,-130 160,-130 160,-78 16,-78"/>
</g>
<g id="clust7" class="cluster">
<title>cluster_AppModule_bootstrap</title>
<polygon fill="none" stroke="#000000" points="175,-208 175,-260 299,-260 299,-208 175,-208"/>
</g>
<g id="clust15" class="cluster">
<title>cluster_DashboardModule</title>
<polygon fill="none" stroke="#000000" stroke-dasharray="1,5" points="446,-70 446,-195 1613,-195 1613,-70 446,-70"/>
</g>
<g id="clust16" class="cluster">
<title>cluster_DashboardModule_declarations</title>
<polygon fill="none" stroke="#000000" points="816,-78 816,-130 1605,-130 1605,-78 816,-78"/>
</g>
<g id="clust22" class="cluster">
<title>cluster_DashboardModule_imports</title>
<polygon fill="none" stroke="#000000" points="626,-78 626,-130 808,-130 808,-78 626,-78"/>
</g>
<g id="clust25" class="cluster">
<title>cluster_DashboardModule_providers</title>
<polygon fill="none" stroke="#000000" points="454,-78 454,-130 618,-130 618,-78 454,-78"/>
</g>
<!-- AppComponent -->
<g id="node1" class="node">
<title>AppComponent</title>
<polygon fill="#ffffb3" stroke="#000000" points="421.9399,-122 316.0601,-122 316.0601,-86 421.9399,-86 421.9399,-122"/>
<text text-anchor="middle" x="369" y="-99.8" font-family="Times,serif" font-size="14.00" fill="#000000">AppComponent</text>
</g>
<!-- AppModule -->
<g id="node3" class="node">
<title>AppModule</title>
<polygon fill="#8dd3c7" stroke="#000000" points="278.6571,-187 275.6571,-191 254.6571,-191 251.6571,-187 195.3429,-187 195.3429,-151 278.6571,-151 278.6571,-187"/>
<text text-anchor="middle" x="237" y="-164.8" font-family="Times,serif" font-size="14.00" fill="#000000">AppModule</text>
</g>
<!-- AppComponent&#45;&gt;AppModule -->
<g id="edge1" class="edge">
<title>AppComponent&#45;&gt;AppModule</title>
<path fill="none" stroke="#000000" d="M369,-122.0109C369,-144.4852 369,-180 369,-180 369,-180 288.7656,-180 288.7656,-180"/>
<polygon fill="#000000" stroke="#000000" points="288.7657,-176.5001 278.7656,-180 288.7656,-183.5001 288.7657,-176.5001"/>
</g>
<!-- HeaderComponent -->
<g id="node2" class="node">
<title>HeaderComponent</title>
<polygon fill="#ffffb3" stroke="#000000" points="297.7437,-122 176.2563,-122 176.2563,-86 297.7437,-86 297.7437,-122"/>
<text text-anchor="middle" x="237" y="-99.8" font-family="Times,serif" font-size="14.00" fill="#000000">HeaderComponent</text>
</g>
<!-- HeaderComponent&#45;&gt;AppModule -->
<g id="edge2" class="edge">
<title>HeaderComponent&#45;&gt;AppModule</title>
<path fill="none" stroke="#000000" d="M237,-122.1061C237,-122.1061 237,-140.991 237,-140.991"/>
<polygon fill="#000000" stroke="#000000" points="233.5001,-140.9909 237,-150.991 240.5001,-140.991 233.5001,-140.9909"/>
</g>
<!-- AppComponent  -->
<g id="node5" class="node">
<title>AppComponent </title>
<polygon fill="#80b1d3" stroke="#000000" points="291.439,-252 182.561,-252 182.561,-216 291.439,-216 291.439,-252"/>
<text text-anchor="middle" x="237" y="-229.8" font-family="Times,serif" font-size="14.00" fill="#000000">AppComponent </text>
</g>
<!-- AppModule&#45;&gt;AppComponent  -->
<g id="edge4" class="edge">
<title>AppModule&#45;&gt;AppComponent </title>
<path fill="none" stroke="#000000" stroke-dasharray="1,5" d="M237,-187.1061C237,-187.1061 237,-205.991 237,-205.991"/>
<polygon fill="#000000" stroke="#000000" points="233.5001,-205.9909 237,-215.991 240.5001,-205.991 233.5001,-205.9909"/>
</g>
<!-- AppRoutingModule -->
<g id="node4" class="node">
<title>AppRoutingModule</title>
<polygon fill="#8dd3c7" stroke="#000000" points="152.2744,-122 149.2744,-126 128.2744,-126 125.2744,-122 23.7256,-122 23.7256,-86 152.2744,-86 152.2744,-122"/>
<text text-anchor="middle" x="88" y="-99.8" font-family="Times,serif" font-size="14.00" fill="#000000">AppRoutingModule</text>
</g>
<!-- AppRoutingModule&#45;&gt;AppModule -->
<g id="edge3" class="edge">
<title>AppRoutingModule&#45;&gt;AppModule</title>
<path fill="none" stroke="#000000" d="M88,-122.1061C88,-141.3391 88,-169 88,-169 88,-169 185.0987,-169 185.0987,-169"/>
<polygon fill="#000000" stroke="#000000" points="185.0987,-172.5001 195.0987,-169 185.0986,-165.5001 185.0987,-172.5001"/>
</g>
<!-- AddlocationComponent -->
<g id="node6" class="node">
<title>AddlocationComponent</title>
<polygon fill="#ffffb3" stroke="#000000" points="1597.0407,-122 1446.9593,-122 1446.9593,-86 1597.0407,-86 1597.0407,-122"/>
<text text-anchor="middle" x="1522" y="-99.8" font-family="Times,serif" font-size="14.00" fill="#000000">AddlocationComponent</text>
</g>
<!-- DashboardModule -->
<g id="node11" class="node">
<title>DashboardModule</title>
<polygon fill="#8dd3c7" stroke="#000000" points="1078.191,-187 1075.191,-191 1054.191,-191 1051.191,-187 957.809,-187 957.809,-151 1078.191,-151 1078.191,-187"/>
<text text-anchor="middle" x="1018" y="-164.8" font-family="Times,serif" font-size="14.00" fill="#000000">DashboardModule</text>
</g>
<!-- AddlocationComponent&#45;&gt;DashboardModule -->
<g id="edge5" class="edge">
<title>AddlocationComponent&#45;&gt;DashboardModule</title>
<path fill="none" stroke="#000000" d="M1522,-122.2921C1522,-144.2057 1522,-178 1522,-178 1522,-178 1088.2936,-178 1088.2936,-178"/>
<polygon fill="#000000" stroke="#000000" points="1088.2936,-174.5001 1078.2936,-178 1088.2935,-181.5001 1088.2936,-174.5001"/>
</g>
<!-- DashboardComponent -->
<g id="node7" class="node">
<title>DashboardComponent</title>
<polygon fill="#ffffb3" stroke="#000000" points="1428.9734,-122 1287.0266,-122 1287.0266,-86 1428.9734,-86 1428.9734,-122"/>
<text text-anchor="middle" x="1358" y="-99.8" font-family="Times,serif" font-size="14.00" fill="#000000">DashboardComponent</text>
</g>
<!-- DashboardComponent&#45;&gt;DashboardModule -->
<g id="edge6" class="edge">
<title>DashboardComponent&#45;&gt;DashboardModule</title>
<path fill="none" stroke="#000000" d="M1358,-122.1061C1358,-141.3391 1358,-169 1358,-169 1358,-169 1088.3934,-169 1088.3934,-169"/>
<polygon fill="#000000" stroke="#000000" points="1088.3934,-165.5001 1078.3934,-169 1088.3934,-172.5001 1088.3934,-165.5001"/>
</g>
<!-- DashboardMainComponent -->
<g id="node8" class="node">
<title>DashboardMainComponent</title>
<polygon fill="#ffffb3" stroke="#000000" points="1268.5239,-122 1097.4761,-122 1097.4761,-86 1268.5239,-86 1268.5239,-122"/>
<text text-anchor="middle" x="1183" y="-99.8" font-family="Times,serif" font-size="14.00" fill="#000000">DashboardMainComponent</text>
</g>
<!-- DashboardMainComponent&#45;&gt;DashboardModule -->
<g id="edge7" class="edge">
<title>DashboardMainComponent&#45;&gt;DashboardModule</title>
<path fill="none" stroke="#000000" d="M1183,-122.027C1183,-138.3976 1183,-160 1183,-160 1183,-160 1088.503,-160 1088.503,-160"/>
<polygon fill="#000000" stroke="#000000" points="1088.503,-156.5001 1078.503,-160 1088.503,-163.5001 1088.503,-156.5001"/>
</g>
<!-- NavbarComponent -->
<g id="node9" class="node">
<title>NavbarComponent</title>
<polygon fill="#ffffb3" stroke="#000000" points="1079.0297,-122 956.9703,-122 956.9703,-86 1079.0297,-86 1079.0297,-122"/>
<text text-anchor="middle" x="1018" y="-99.8" font-family="Times,serif" font-size="14.00" fill="#000000">NavbarComponent</text>
</g>
<!-- NavbarComponent&#45;&gt;DashboardModule -->
<g id="edge8" class="edge">
<title>NavbarComponent&#45;&gt;DashboardModule</title>
<path fill="none" stroke="#000000" d="M1018,-122.1061C1018,-122.1061 1018,-140.991 1018,-140.991"/>
<polygon fill="#000000" stroke="#000000" points="1014.5001,-140.9909 1018,-150.991 1021.5001,-140.991 1014.5001,-140.9909"/>
</g>
<!-- NgbdModalBasic -->
<g id="node10" class="node">
<title>NgbdModalBasic</title>
<polygon fill="#ffffb3" stroke="#000000" points="938.2577,-122 823.7423,-122 823.7423,-86 938.2577,-86 938.2577,-122"/>
<text text-anchor="middle" x="881" y="-99.8" font-family="Times,serif" font-size="14.00" fill="#000000">NgbdModalBasic</text>
</g>
<!-- NgbdModalBasic&#45;&gt;DashboardModule -->
<g id="edge9" class="edge">
<title>NgbdModalBasic&#45;&gt;DashboardModule</title>
<path fill="none" stroke="#000000" d="M881,-122.0091C881,-138.0494 881,-159 881,-159 881,-159 947.511,-159 947.511,-159"/>
<polygon fill="#000000" stroke="#000000" points="947.511,-162.5001 957.511,-159 947.511,-155.5001 947.511,-162.5001"/>
</g>
<!-- DashboardRoutingModule -->
<g id="node12" class="node">
<title>DashboardRoutingModule</title>
<polygon fill="#8dd3c7" stroke="#000000" points="799.8089,-122 796.8089,-126 775.8089,-126 772.8089,-122 634.1911,-122 634.1911,-86 799.8089,-86 799.8089,-122"/>
<text text-anchor="middle" x="717" y="-99.8" font-family="Times,serif" font-size="14.00" fill="#000000">DashboardRoutingModule</text>
</g>
<!-- DashboardRoutingModule&#45;&gt;DashboardModule -->
<g id="edge10" class="edge">
<title>DashboardRoutingModule&#45;&gt;DashboardModule</title>
<path fill="none" stroke="#000000" d="M717,-122.2667C717,-140.5552 717,-166 717,-166 717,-166 947.8116,-166 947.8116,-166"/>
<polygon fill="#000000" stroke="#000000" points="947.8116,-169.5001 957.8116,-166 947.8116,-162.5001 947.8116,-169.5001"/>
</g>
<!-- LocationService -->
<g id="node13" class="node">
<title>LocationService</title>
<ellipse fill="#fdb462" stroke="#000000" cx="536" cy="-104" rx="74.1354" ry="18"/>
<text text-anchor="middle" x="536" y="-99.8" font-family="Times,serif" font-size="14.00" fill="#000000">LocationService</text>
</g>
<!-- LocationService&#45;&gt;DashboardModule -->
<g id="edge11" class="edge">
<title>LocationService&#45;&gt;DashboardModule</title>
<path fill="none" stroke="#000000" d="M536,-122.1289C536,-142.5724 536,-173 536,-173 536,-173 947.4424,-173 947.4424,-173"/>
<polygon fill="#000000" stroke="#000000" points="947.4425,-176.5001 957.4424,-173 947.4424,-169.5001 947.4425,-176.5001"/>
</g>
</g>
</svg>
