<?xml version="1.0" encoding="UTF-8" standalone="no"?>
<!DOCTYPE svg PUBLIC "-//W3C//DTD SVG 1.1//EN"
 "http://www.w3.org/Graphics/SVG/1.1/DTD/svg11.dtd">
<!-- Generated by graphviz version 2.40.1 (20161225.0304)
 -->
<!-- Title: dependencies Pages: 1 -->
<svg width="1191pt" height="211pt"
 viewBox="0.00 0.00 1191.00 211.00" xmlns="http://www.w3.org/2000/svg" xmlns:xlink="http://www.w3.org/1999/xlink">
<g id="graph0" class="graph" transform="scale(1 1) rotate(0) translate(4 207)">
<title>dependencies</title>
<polygon fill="#ffffff" stroke="transparent" points="-4,4 -4,-207 1187,-207 1187,4 -4,4"/>
<text text-anchor="start" x="570.5091" y="-42.4" font-family="sans-serif" font-weight="bold" font-size="14.00" fill="#000000">Legend</text>
<polygon fill="#ffffb3" stroke="transparent" points="357.5,-10 357.5,-30 377.5,-30 377.5,-10 357.5,-10"/>
<text text-anchor="start" x="381.129" y="-15.4" font-family="sans-serif" font-size="14.00" fill="#000000"> &#160;Declarations</text>
<polygon fill="#8dd3c7" stroke="transparent" points="470.5,-10 470.5,-30 490.5,-30 490.5,-10 470.5,-10"/>
<text text-anchor="start" x="494.2251" y="-15.4" font-family="sans-serif" font-size="14.00" fill="#000000"> &#160;Module</text>
<polygon fill="#80b1d3" stroke="transparent" points="556.5,-10 556.5,-30 576.5,-30 576.5,-10 556.5,-10"/>
<text text-anchor="start" x="580.2812" y="-15.4" font-family="sans-serif" font-size="14.00" fill="#000000"> &#160;Bootstrap</text>
<polygon fill="#fdb462" stroke="transparent" points="653.5,-10 653.5,-30 673.5,-30 673.5,-10 653.5,-10"/>
<text text-anchor="start" x="677.1732" y="-15.4" font-family="sans-serif" font-size="14.00" fill="#000000"> &#160;Providers</text>
<polygon fill="#fb8072" stroke="transparent" points="749.5,-10 749.5,-30 769.5,-30 769.5,-10 749.5,-10"/>
<text text-anchor="start" x="773.2258" y="-15.4" font-family="sans-serif" font-size="14.00" fill="#000000"> &#160;Exports</text>
<g id="clust1" class="cluster">
<title>cluster_DashboardModule</title>
<polygon fill="none" stroke="#000000" stroke-dasharray="1,5" points="8,-70 8,-195 1175,-195 1175,-70 8,-70"/>
</g>
<g id="clust2" class="cluster">
<title>cluster_DashboardModule_declarations</title>
<polygon fill="none" stroke="#000000" points="378,-78 378,-130 1167,-130 1167,-78 378,-78"/>
</g>
<g id="clust8" class="cluster">
<title>cluster_DashboardModule_imports</title>
<polygon fill="none" stroke="#000000" points="188,-78 188,-130 370,-130 370,-78 188,-78"/>
</g>
<g id="clust11" class="cluster">
<title>cluster_DashboardModule_providers</title>
<polygon fill="none" stroke="#000000" points="16,-78 16,-130 180,-130 180,-78 16,-78"/>
</g>
<!-- AddlocationComponent -->
<g id="node1" class="node">
<title>AddlocationComponent</title>
<polygon fill="#ffffb3" stroke="#000000" points="1159.0407,-122 1008.9593,-122 1008.9593,-86 1159.0407,-86 1159.0407,-122"/>
<text text-anchor="middle" x="1084" y="-99.8" font-family="Times,serif" font-size="14.00" fill="#000000">AddlocationComponent</text>
</g>
<!-- DashboardModule -->
<g id="node6" class="node">
<title>DashboardModule</title>
<polygon fill="#8dd3c7" stroke="#000000" points="640.191,-187 637.191,-191 616.191,-191 613.191,-187 519.809,-187 519.809,-151 640.191,-151 640.191,-187"/>
<text text-anchor="middle" x="580" y="-164.8" font-family="Times,serif" font-size="14.00" fill="#000000">DashboardModule</text>
</g>
<!-- AddlocationComponent&#45;&gt;DashboardModule -->
<g id="edge1" class="edge">
<title>AddlocationComponent&#45;&gt;DashboardModule</title>
<path fill="none" stroke="#000000" d="M1084,-122.2921C1084,-144.2057 1084,-178 1084,-178 1084,-178 650.2936,-178 650.2936,-178"/>
<polygon fill="#000000" stroke="#000000" points="650.2936,-174.5001 640.2936,-178 650.2935,-181.5001 650.2936,-174.5001"/>
</g>
<!-- DashboardComponent -->
<g id="node2" class="node">
<title>DashboardComponent</title>
<polygon fill="#ffffb3" stroke="#000000" points="990.9734,-122 849.0266,-122 849.0266,-86 990.9734,-86 990.9734,-122"/>
<text text-anchor="middle" x="920" y="-99.8" font-family="Times,serif" font-size="14.00" fill="#000000">DashboardComponent</text>
</g>
<!-- DashboardComponent&#45;&gt;DashboardModule -->
<g id="edge2" class="edge">
<title>DashboardComponent&#45;&gt;DashboardModule</title>
<path fill="none" stroke="#000000" d="M920,-122.1061C920,-141.3391 920,-169 920,-169 920,-169 650.3934,-169 650.3934,-169"/>
<polygon fill="#000000" stroke="#000000" points="650.3934,-165.5001 640.3934,-169 650.3934,-172.5001 650.3934,-165.5001"/>
</g>
<!-- DashboardMainComponent -->
<g id="node3" class="node">
<title>DashboardMainComponent</title>
<polygon fill="#ffffb3" stroke="#000000" points="830.5239,-122 659.4761,-122 659.4761,-86 830.5239,-86 830.5239,-122"/>
<text text-anchor="middle" x="745" y="-99.8" font-family="Times,serif" font-size="14.00" fill="#000000">DashboardMainComponent</text>
</g>
<!-- DashboardMainComponent&#45;&gt;DashboardModule -->
<g id="edge3" class="edge">
<title>DashboardMainComponent&#45;&gt;DashboardModule</title>
<path fill="none" stroke="#000000" d="M745,-122.027C745,-138.3976 745,-160 745,-160 745,-160 650.503,-160 650.503,-160"/>
<polygon fill="#000000" stroke="#000000" points="650.503,-156.5001 640.503,-160 650.503,-163.5001 650.503,-156.5001"/>
</g>
<!-- NavbarComponent -->
<g id="node4" class="node">
<title>NavbarComponent</title>
<polygon fill="#ffffb3" stroke="#000000" points="641.0297,-122 518.9703,-122 518.9703,-86 641.0297,-86 641.0297,-122"/>
<text text-anchor="middle" x="580" y="-99.8" font-family="Times,serif" font-size="14.00" fill="#000000">NavbarComponent</text>
</g>
<!-- NavbarComponent&#45;&gt;DashboardModule -->
<g id="edge4" class="edge">
<title>NavbarComponent&#45;&gt;DashboardModule</title>
<path fill="none" stroke="#000000" d="M580,-122.1061C580,-122.1061 580,-140.991 580,-140.991"/>
<polygon fill="#000000" stroke="#000000" points="576.5001,-140.9909 580,-150.991 583.5001,-140.991 576.5001,-140.9909"/>
</g>
<!-- NgbdModalBasic -->
<g id="node5" class="node">
<title>NgbdModalBasic</title>
<polygon fill="#ffffb3" stroke="#000000" points="500.2577,-122 385.7423,-122 385.7423,-86 500.2577,-86 500.2577,-122"/>
<text text-anchor="middle" x="443" y="-99.8" font-family="Times,serif" font-size="14.00" fill="#000000">NgbdModalBasic</text>
</g>
<!-- NgbdModalBasic&#45;&gt;DashboardModule -->
<g id="edge5" class="edge">
<title>NgbdModalBasic&#45;&gt;DashboardModule</title>
<path fill="none" stroke="#000000" d="M443,-122.027C443,-138.3976 443,-160 443,-160 443,-160 509.511,-160 509.511,-160"/>
<polygon fill="#000000" stroke="#000000" points="509.511,-163.5001 519.511,-160 509.511,-156.5001 509.511,-163.5001"/>
</g>
<!-- DashboardRoutingModule -->
<g id="node7" class="node">
<title>DashboardRoutingModule</title>
<polygon fill="#8dd3c7" stroke="#000000" points="361.8089,-122 358.8089,-126 337.8089,-126 334.8089,-122 196.1911,-122 196.1911,-86 361.8089,-86 361.8089,-122"/>
<text text-anchor="middle" x="279" y="-99.8" font-family="Times,serif" font-size="14.00" fill="#000000">DashboardRoutingModule</text>
</g>
<!-- DashboardRoutingModule&#45;&gt;DashboardModule -->
<g id="edge6" class="edge">
<title>DashboardRoutingModule&#45;&gt;DashboardModule</title>
<path fill="none" stroke="#000000" d="M279,-122.1061C279,-141.3391 279,-169 279,-169 279,-169 509.8116,-169 509.8116,-169"/>
<polygon fill="#000000" stroke="#000000" points="509.8116,-172.5001 519.8116,-169 509.8116,-165.5001 509.8116,-172.5001"/>
</g>
<!-- LocationService -->
<g id="node8" class="node">
<title>LocationService</title>
<ellipse fill="#fdb462" stroke="#000000" cx="98" cy="-104" rx="74.1354" ry="18"/>
<text text-anchor="middle" x="98" y="-99.8" font-family="Times,serif" font-size="14.00" fill="#000000">LocationService</text>
</g>
<!-- LocationService&#45;&gt;DashboardModule -->
<g id="edge7" class="edge">
<title>LocationService&#45;&gt;DashboardModule</title>
<path fill="none" stroke="#000000" d="M98,-122.2921C98,-144.2057 98,-178 98,-178 98,-178 509.4424,-178 509.4424,-178"/>
<polygon fill="#000000" stroke="#000000" points="509.4425,-181.5001 519.4424,-178 509.4424,-174.5001 509.4425,-181.5001"/>
</g>
</g>
</svg>
